<svg xmlns="http://www.w3.org/2000/svg" viewBox="0 0 443.28 484.91"><g id="Layer_2" data-name="Layer 2"><g id="Layer_1-2" data-name="Layer 1"><path d="M432.79,320a92.72,92.72,0,0,0-30.38-36.85q-19.89-14.3-64.55-27.23-42.24-12-54-21.95t-11.74-24.58q0-14.85,12.94-24.83t36.86-10q23.93,0,36.87,11.48t16.84,40.28L435,223.19q-1.71-52.24-30.76-80.32t-80.81-28.08q-34.43,0-57.86,11.95a87,87,0,0,0-36.75,35.37q-13.31,23.43-13.3,52.7a108,108,0,0,0,10.37,47q10.38,21.83,28,35.24t55.42,24.87q42.22,12.93,53.22,18.41t16.36,14q5.35,8.55,5.37,20.74a45.19,45.19,0,0,1-15.38,34.78q-15.39,14-42.24,14-42.27,0-57.51-41.74l-.25,0-8.9-24.24-.82-2.22.1,0L251,333.07l-23-45q-21.48-42-33.93-58.22A148.18,148.18,0,0,0,162.59,200q37.11-6.58,57.26-32.23T240,100.1q0-33.21-13.19-57T193.11,9.64Q172.61,0,124.75,0H0V357.91H59.08V208.49H71.29q20.5,0,29.78,4t17.58,14.65q8.3,10.62,31.45,52.86l29,52.63h-.24l37.06,80.7q26.6,71.55,109,71.55,61,0,89.72-31.73t28.69-78.36Q443.28,342.6,432.79,320ZM103,151.37H59.08V60.55h46.39q39.78,0,48.09,2.68a34.93,34.93,0,0,1,18.56,14.28Q178.95,87.89,179,105q0,17.82-6.83,28.56t-17.83,14.29Q143.31,151.37,103,151.37Z"/></g></g></svg>