<svg class="hero-svg slideLeft-animation-izrada-sajtova" xmlns="http://www.w3.org/2000/svg" xmlns:xlink="http://www.w3.org/1999/xlink" width="1262" height="992" viewBox="0 0 1262 992" preserveAspectRatio="xMidYMid slice">
                    <defs>
                        <filter id="insetShadow">
                            <feOffset dx="-5" dy="-5"/>
                            <feGaussianBlur stdDeviation="4" result="offset-blur"/>
                            <feFlood flood-color="#575757" result="color"/>
                            <feComposite in="color" in2="offset-blur" operator="in" result="shadow"/>
                            <feComposite in="SourceGraphic" in2="shadow" operator="over"/>
                        </filter>
                        <filter id="insetShadow2">
                            <feOffset dx="-2" dy="-2"/>
                            <feGaussianBlur stdDeviation="9" result="offset-blur"/>
                            <feFlood flood-color="rgb(168, 168, 168)" result="color"/>
                            <feComposite in="color" in2="offset-blur" operator="in" result="shadow"/>
                            <feComposite in="SourceGraphic" in2="shadow" operator="over"/>
                        </filter>
                        <linearGradient id="myGradient" x1="0%" y1="0%" x2="100%" y2="100%">
                            <stop offset="0%" stop-color="#575757" />
                            <stop offset="100%" stop-color="#1c1b19" />
                        </linearGradient>
                    </defs>
                    <path class="cls-3" d="M-17.9-2.7c116.6,0.7,233.2,1.4,349.8,2c25.6,14.7,60.6,38.1,95.7,73.9c30.7,31.3,48.7,59.2,54.1,67.7
                            c24.9,39.4,47.4,75.1,49,120.7c2.1,59.3-32.3,104.7-61.4,143.1c-31.8,42-46.1,42.4-92.9,95c-41,46-67.6,87.8-76.1,102.1
                            c-60.7,102.9-37.9,238.1-21.7,304.9c-16.5-42.3-32.5-99.6-34.3-168c-1.1-42.7-2.2-113.6,35.1-188.9c9-18.2,17-30.1,33-53.8
                            c54.4-80.6,83.8-90.5,110.3-144.7c14-28.7,30.7-62.8,24.5-100.8c-6.7-41-38.9-80.5-160.3-142C216.2,72.8,114.2,29-17.9-2.7z"/>
                    <path filter="url(#insetShadow2)" class="cls-2" fill="url(#myGradient)" d="M1261.99,0V992.124h-954.3C251.706,852.793,239.692,725.441,284,616c55.451-136.964,243.978-218.261,243-354-0.156-21.656-20.752-81.637-61-139C428.213,69.144,377.94,25.389,319-6"/>
                    <path filter="url(#insetShadow)" class="cls-1" d="M0,1C102.766,31.1,200.853,71.117,288,122c79.463,46.4,125.408,88.816,132,143,6.778,55.707-30.952,99-64,144-45.47,61.92-82.281,123.718-101,180-65.557,197.107,54.433,402.838,54,403a22.559,22.559,0,0,1-2-5c-14.011-49.392-33.256-84.021-45-134-13.248-56.381-38.4-212.185,37-329,32.942-51.035,98.161-117.685,122-153a218.659,218.659,0,0,0,12-20,186.309,186.309,0,0,0,14-33c6.947-23.051,6.643-50.2,6-58-5.243-63.639-86.1-118.585-176-162C190.764,56.355,97.648,24.243,0,1Z"/>
                </svg>