<svg xmlns="http://www.w3.org/2000/svg" viewBox="0 0 1257.06 484.91"><defs><style>.cls-1,.cls-2{fill:gold;}.cls-2{stroke:gold;stroke-miterlimit:10;stroke-width:8px;}</style></defs><g id="Layer_2" data-name="Layer 2"><g id="Layer_1-2" data-name="Layer 1"><path class="cls-1" d="M432.79,320a92.72,92.72,0,0,0-30.38-36.85q-19.89-14.3-64.55-27.23-42.24-12-54-21.95t-11.74-24.58q0-14.85,12.94-24.83t36.86-10c9.83,0,24.3.71,36.87,11.48,16.32,14,17,34.71,17,38.58,8.21,1.86,16.91,4.16,26,7a338,338,0,0,1,37,14c.79-6,7.55-64.83-34.62-102.79-29.58-26.63-66.2-28.08-80.81-28.08q-34.43,0-57.86,11.95a87,87,0,0,0-36.75,35.37q-13.31,23.43-13.3,52.7a108,108,0,0,0,10.37,47q10.38,21.83,28,35.24t55.42,24.87q42.22,12.93,53.22,18.41t16.36,14q5.35,8.55,5.37,20.74a45.19,45.19,0,0,1-15.38,34.78q-15.39,14-42.24,14-42.27,0-57.51-41.74l-.25,0-8.9-24.24-.82-2.22.1,0L251,333.07l-23-45q-21.48-42-33.93-58.22A148.18,148.18,0,0,0,162.59,200q37.11-6.58,57.26-32.23T240,100.1q0-33.21-13.19-57T193.11,9.64Q172.61,0,124.75,0H0V357.91l70.84,1.75c-3.7-20.54-6.86-42.94-9-67a753.13,753.13,0,0,1-2.76-84.17H71.29q20.5,0,29.78,4t17.58,14.65q8.3,10.62,31.45,52.86l29,52.63h-.24l37.06,80.7q26.6,71.55,109,71.55,61,0,89.72-31.73t28.69-78.36Q443.28,342.6,432.79,320ZM103,151.37H59.08V60.55h46.39q39.78,0,48.09,2.68a34.93,34.93,0,0,1,18.56,14.28Q178.95,87.89,179,105q0,17.82-6.83,28.56t-17.83,14.29Q143.31,151.37,103,151.37Z"/><path class="cls-1" d="M505.9,294.75V151.59h23.63V294.75Z"/><path class="cls-1" d="M542,294.75V268.58l61.67-92.77H549V151.59H634.9v22.46l-64.24,96.48h66.78v24.22Z"/><path class="cls-1" d="M652.48,294.75V151.59h49.9q19.14,0,27.35,3.85t13.48,13.38q5.26,9.52,5.27,22.81,0,16.78-8.06,27.05t-22.9,12.89a59,59,0,0,1,12.6,12q5,6.5,13.57,23.29L758,294.75H729.67L712.52,263.6q-9.25-16.89-12.58-21.14a18.4,18.4,0,0,0-7-5.86Q689.21,235,681,235h-4.88v59.76Zm23.64-82.62h17.57q16.13,0,20.51-1.41a13.09,13.09,0,0,0,7.13-5.71q2.73-4.31,2.73-11.43,0-6.84-2.73-11a14,14,0,0,0-7.42-5.71q-3.33-1.08-19.24-1.07H676.12Z"/><path class="cls-1" d="M876.7,294.75H851l-10.28-32.42h-47L784,294.75h-25.2l45.71-143.16h25.11Zm-43.61-56.64L816.89,185,801,238.11Z"/><path class="cls-1" d="M889,151.59h43.21q16.39,0,24.74,3.66t15.36,12.35q7,8.7,11,22.56t4,34.47q0,18.56-4.2,32.28t-10.63,21.73A41.26,41.26,0,0,1,957,290.7q-9.13,4.05-23.47,4.05H889Zm23.63,24.22v94.72h17.77q11.43,0,16.56-2.14a20,20,0,0,0,8.39-6.49q3.27-4.33,5.42-13.71t2.15-24.68q0-15.9-2.2-25.07T953.9,184a21.79,21.79,0,0,0-11.28-6.93q-5-1.26-19.24-1.26Z"/><path class="cls-1" d="M1113.42,294.75h-25.69l-10.29-32.42h-47l-9.71,32.42H995.55l45.71-143.16h25.11Zm-43.61-56.64L1053.61,185l-15.91,53.12Z"/><path class="cls-1" d="M503.84,429.31,527,426.57Q530.9,454,552.57,454q10.74,0,16.89-5.61a18,18,0,0,0,6.16-13.91,15.32,15.32,0,0,0-2.15-8.3,15.88,15.88,0,0,0-6.54-5.61q-4.39-2.19-21.29-7.36-15.15-4.59-22.17-10a37.69,37.69,0,0,1-11.18-14.1,43.14,43.14,0,0,1-4.15-18.78,41.9,41.9,0,0,1,5.32-21.08,34.86,34.86,0,0,1,14.7-14.15q9.38-4.79,23.14-4.78,20.7,0,32.32,11.23t12.31,32.13L572.2,375q-1.56-11.52-6.74-16.11t-14.75-4.59q-9.57,0-14.74,4a12.1,12.1,0,0,0-5.18,9.93,12.42,12.42,0,0,0,4.7,9.83q4.69,4,21.59,8.78,17.86,5.18,25.82,10.89a37.1,37.1,0,0,1,12.15,14.74q4.2,9,4.2,21.92,0,18.66-11.47,31.34t-35.89,12.7Q508.72,478.43,503.84,429.31Z"/><path class="cls-1" d="M725.13,476h-25.7l-10.28-32.43h-47L632.45,476H607.26L653,332.82h25.1Zm-43.61-56.65-16.21-53.12-15.9,53.12Z"/><path class="cls-1" d="M780,332.82h23.63v90.63q0,22-4.39,32.71a35,35,0,0,1-13.13,16.5q-8.75,5.77-21.54,5.77-16.89,0-26.46-11.62t-9.67-35.06l22.36-3.13q.39,12.6,3.24,17.87,3.81,7.23,11.46,7.23,7.44,0,11-5.23T780,425.3Z"/><path class="cls-1" d="M855.21,476V357H820.34V332.82h93.27V357H878.84V476Z"/><path class="cls-1" d="M921.32,405.28q0-25.57,7.57-42.14t19.77-24.65q12.21-8.12,29.59-8.11,25.2,0,41.07,19.24t15.87,54.78q0,35.94-16.8,56.16-14.75,17.87-40,17.87-25.49,0-40.23-17.68Q921.32,440.53,921.32,405.28Zm24.41-1q0,24.7,9.39,37.06t23.28,12.35q14,0,23.18-12.26t9.19-37.64q0-24.9-8.95-36.82T978.4,355.09q-14.48,0-23.57,12T945.73,404.31Z"/><path class="cls-1" d="M1083.83,476l-42-143.17h25.68l29.74,106,28.76-106h25.19L1109.1,476Z"/><path class="cls-1" d="M1257.06,476h-25.69l-10.28-32.43h-47l-9.7,32.43h-25.2l45.71-143.17H1210Zm-43.6-56.65-16.21-53.12-15.91,53.12Z"/><path class="cls-2" d="M505.9,311.66h0Z"/></g></g></svg>